# xmcd
#
# Track frame offsets:
#	150
#	16471
#	37471
#	51171
#	66722
#	83990
#	110669
#
# Disc length: 1661 seconds
#
# Revision: 0
# Processed by: cddbd v1.4PL0 Copyright (c) Steve Scherf et al.
# Submitted via: audiograbber 1.81.02
#
DISCID=6a067b07
DTITLE=Jaclyn Turner - The Chase
DYEAR=2002
DGENRE=
TTITLE0=The Chase
TTITLE1=Knowing What She Wants
TTITLE2=All I Need
TTITLE3=You Broke My Heart Again
TTITLE4=My Baby Left Me
TTITLE5=The Bed That I've Made
TTITLE6=Quarter Life Crisis
EXTD=
EXTT0=
EXTT1=
EXTT2=
EXTT3=
EXTT4=
EXTT5=
EXTT6=
PLAYORDER=
